# xmcd
#
# Track frame offsets: 
#        150
#        11670
#        32430
#        45395
#        61325
#        75300
#        86575
#        98083
#        112550
#        131220
#        150903
#        162163
#        173945
#        191928
#        202203
#        217340
#
# Disc length: 3080 seconds
#
# Revision: 2
# Processed by: cddbd v1.5.2PL0 Copyright (c) Steve Scherf et al.
# Submitted via: ExactAudioCopyFreeDBPlugin 1.0
#
DISCID=cc0c0610
DTITLE=Daniel Donnell - Thoughts Of Home
DYEAR=1900
DGENRE=Country
TTITLE0=My Shoes Keep Walking Back To You
TTITLE1=The Mountains Of Mourne
TTITLE2=London Leaves
TTITLE3=Blue Eyes Crying In The Rain
TTITLE4=Old Days Remembered
TTITLE5=Send Me The Pillow You Dream On
TTITLE6=Moonlight And Roses
TTITLE7=A Little Piece Of Heaven
TTITLE8=Far Far From Home
TTITLE9=The Isle Of Innisfree
TTITLE10=My Heart Skips A Beat
TTITLE11=I Know One
TTITLE12=I'll Take You Home Again Kathleen
TTITLE13=Second Fiddle
TTITLE14=My Favourite Memory
TTITLE15=Forty Shades Of Green
EXTD=
EXTT0=
EXTT1=
EXTT2=
EXTT3=
EXTT4=
EXTT5=
EXTT6=
EXTT7=
EXTT8=
EXTT9=
EXTT10=
EXTT11=
EXTT12=
EXTT13=
EXTT14=
EXTT15=
PLAYORDER=
